<?xml version="1.0" encoding="UTF-8"?>
<svg xmlns="http://www.w3.org/2000/svg" width="200" height="200" viewBox="0 0 739 739">
  <path fill="currentColor" fill-rule="evenodd" d="M616.735,152.076c22.969-3.549,26.914,7.8,32.079,29.806,16.114,67.24,5.862,140.236-25.853,204.916-20.358,40.271-46.37,74.89-80.976,102.4a311.987,311.987,0,0,1-47.358,30.909C455.6,542.144,397.162,557.075,349.118,555.9c-43.236-.849-86.473-8.25-130.683-28.227-26.853-12.746-48.357-27.276-70.869-43.346-37.387-37.6-61.113-61.648-83.245-133.845-8.866-26.393-6.006-54.03,20.906-55.891,87.964-23.055,175.928-48.995,265.382-75.687,88.461-11.4,176.921-44.972,265.382-66.833C617.482,151.718,617.482,151.718,616.735,152.076Zm-2.235,13.06h11.927c3.231-1.739-.248,3.231,3.9,3.063,19.83,59.713,15.015,120.707-5.922,181.057-20.884,54.561-42.255,81.662-75.51,114.062-0.5.994,1.242,4.224-2.321,3.643-15.651,14.664-33.591,27.04-54.369,38.647-15.347,8.43-33.833,17.825-65.565,26.563a302.378,302.378,0,0,1-142.1,3.116c-81.481-21.44-112.766-46.679-150.568-84.82-17.449-18.477-31.037-38.839-43.581-64.676C82.277,368.4,78,351,75.83,332.856c-9.678-23.386,10.806-25.314,30.472-30,5.465,43.523,27.89,79.629,40.137,98.041,34.282,42.015,59.974,67.184,132.606,92.328,51.685,14.109,103.37,11.24,157.877-6.282,75.037-27.19,101.638-60.91,139.569-110.778,12.5-16.714,31.591-58.564,38.547-99.209,3.56-19.382,2.213-38.764,2.729-59.637-1.636-9.442-2.285-18.885-5.094-29.91C613.23,179.068,599.676,165.217,614.5,165.136Zm-26.16,8.606c15.539,4.686,11.618,32.918,15.429,49.54,2.265,35.285-3.335,70.57-18.91,108.144-20.2,47.233-46.845,77.985-83.4,106.819-13.564,9.3-27.314,18.407-43.194,25.68-35.577,16.805-80.108,25.516-121.3,23.307-28.955.724-62.575-8.783-89.191-20.968a223.04,223.04,0,0,1-79.5-60.646,270.446,270.446,0,0,1-28.57-41.564c-5.932-17.829-22.959-45.185-15.712-65.868,77.03-21.4,154.061-42.447,232.582-66.034C433.6,220.341,510.633,194.542,588.34,173.742Zm-275.18,82.2c10.844-.022,17.626,3.8,21.235,10,0.082,21.149-10.089,28.05-16.489,39.875-24.975,38.59-46.984,75.469-76.972,109.376-2.576,8.526-27.373,11.565-35.225,2.189-13.531-9.33-24.236-21.485-34.49-36.475-8.152-9.514-17.8-31.935-22.579-58.693,6.174-21.715,38.617-23.945,72.26-37.429Q267.118,269.67,313.16,255.944Zm-1.315,10.484c3.479,0.966,6.958-1.573,12.758,2.161-3.127,21.8-16.566,29.485-24.6,47.211-16.309,23.449-31.2,48.311-48.041,72.723-5.963,8.449-12.364,16.46-20.774,22.984-14.883,7.156-21.9-5.357-29.372-9.611-11.53-11.331-21.308-24.413-31.688-39.353-2.414-8.826-17.738-21.572-11.691-43.021,15.859-11.5,50.111-19.256,74.393-28.079C259.167,282.172,285.506,274.874,311.845,266.428Zm40.11,11.418c29.213-8.766,26.819,26.631,34.18,51.29,3.84,21.37,8.568,42.74,11.892,65.6,2.41,18.885,9.812,37.77.645,57.387-16.092,20.568-62.539,19.742-92.29,13.013-28.985-8.032-44.366-11.4-43.665-43.254,11.841-25.809,29.058-50.068,42.7-75.321,15.659-22.607,25.852-50.68,45.775-69.024C352.1,276.955,352.1,276.955,351.955,277.846Zm10.878,7.278c7.433,8.042,7.742,25.164,11.588,38.049,6.963,39.757,17.454,79.515,17.321,120.014-4.712,17.942-38.721,14-60.733,14.37-21.3-1.41-52.506-7.784-60.445-21.529,10-39.806,28.041-50.093,42.27-82.048,7.352-11.533,14.131-23.639,21.241-36.742C343.87,306.724,345.619,291.093,362.833,285.124ZM404.282,265.1c3.479-1.27,6.957,2.625,11.6,1.746,21.58,12.711,41.787,26.8,63.258,41.106,18.688,15.6,42.152,26.43,57.855,47.081,3.254,39.531-21.231,45.637-36.563,62.576-15.6,9.532-23.614,19.394-52.307,24.831-34.891,1.588-28.23-49.77-43.672-83.48-4.256-17.394-8.586-34.788-12.844-53.453C384.819,287.118,387.108,266.239,404.282,265.1Zm-0.771,9.648c19.447,2.421,27.019,16.715,42.9,24.187,23.072,15.195,45.388,31.146,68.53,48.268,6.778,4.066,19.053,12.317,11.747,28.312-9.269,16.077-24.344,26.348-38.789,38.573-12.59,7.339-20,16.229-41.418,20-22.237-5.677-19.318-48.157-31.655-73.815-2.41-27.862-21.341-58.745-14.159-85.356C402.791,275.464,402.791,275.464,403.511,274.743Zm146.5-68.908c30.243-4.366,35.961,17.255,35.691,47.867-1.063,21.706-7.473,55.863-20,69.546-4.927,15.3-36.309,10.367-47.518-.676-18.514-11.3-37.389-22.247-56.037-34.908-8.713-6.2-18.335-11.483-28.146-18.072-6.552-8.357-19.488-10.33-15.622-30.316,6.7-15.572,40.023-16.039,61.932-21.712C503.676,213.392,527.033,209.274,550.013,205.835Zm0.378,9.992c3.479,0,6.957,0,12.2.449,18.036,4.579,12.737,36.628,10.885,56.3-4.49,19.817-8.205,48.719-28.6,51.366-24.689-9.537-40.12-22.645-61.888-34.749-18.38-12.928-38.923-23.694-56.339-40.57a16.267,16.267,0,0,0-1.337-6.635c17.032-8.222,41.443-10.926,62.465-15.534C508.645,222.853,529.518,219.361,550.391,215.827Z"/>
</svg>
